<svg width="932" height="616" viewBox="0 0 932 616" fill="none" xmlns="http://www.w3.org/2000/svg">
<rect id="ID26" x="620.442" y="463.601" width="89.1423" height="134.388" rx="0.5" transform="rotate(13.2672 620.442 463.601)" fill="#C4C4C4" stroke="black"/>
<path id="Vector" d="M647.249 514.957C645.314 514.752 643.527 515.766 642.686 517.546C642.501 517.944 642.314 518.705 642.292 519.142C642.209 520.963 643.18 522.628 644.782 523.411C645.175 523.6 645.175 523.6 645.108 523.62C645.081 523.627 645.004 523.632 644.943 523.631C644.654 523.621 644.497 523.719 644.445 523.938C644.431 523.997 644.261 525.485 644.07 527.24C643.876 528.996 643.677 530.727 643.628 531.088C643.517 531.913 643.511 531.964 643.347 533.66C643.272 534.431 643.088 536.202 642.934 537.594C642.783 538.986 642.667 540.166 642.679 540.222C642.722 540.414 642.792 540.45 643.626 540.684C644.048 540.804 645.835 541.261 647.601 541.7C650.805 542.493 650.811 542.498 650.845 542.572C650.864 542.616 650.923 542.907 650.976 543.22C651.143 544.21 651.713 548.102 651.865 549.267C651.961 549.992 652.457 553.165 652.534 553.543C652.562 553.671 652.597 553.742 652.667 553.795C652.796 553.898 652.796 553.898 653.2 553.862C653.391 553.842 653.743 553.816 653.982 553.801C654.546 553.766 657.187 553.367 657.752 553.23C658.487 553.052 658.503 553.026 658.366 552.185C658.315 551.863 658.207 551.246 658.13 550.813C657.976 549.974 657.943 549.891 657.736 549.842C657.689 549.831 657.216 549.896 656.688 549.986C655.745 550.148 655.287 550.217 655.241 550.206C655.21 550.199 655.253 550.539 654.615 545.472C654.094 541.32 653.93 540.094 653.88 539.891C653.868 539.832 653.826 539.749 653.786 539.71C653.721 539.639 653.481 539.578 650.013 538.739C646.776 537.958 646.308 537.837 646.28 537.787C646.262 537.757 646.261 537.608 646.274 537.456C646.29 537.305 646.343 536.753 646.395 536.231C646.447 535.709 646.514 535.164 646.543 535.026C646.595 534.781 646.606 534.763 646.722 534.672C646.79 534.619 646.913 534.556 647 534.534V534.534C647.101 534.506 647.207 534.504 647.309 534.529L651.02 535.431C655.257 536.46 655.016 536.413 655.216 536.259C655.306 536.184 655.308 536.175 655.427 535.59C655.585 534.826 655.798 533.421 655.774 533.313C655.762 533.268 655.722 533.189 655.684 533.143V533.143C655.638 533.087 655.575 533.048 655.504 533.031L651.257 532.007C648.861 531.429 646.897 530.946 646.887 530.931C646.862 530.888 646.895 530.649 647.393 527.214C647.717 524.982 647.824 524.077 647.785 523.899C647.764 523.818 647.755 523.747 647.763 523.742C647.771 523.737 647.888 523.696 648.023 523.652C649.181 523.274 650.088 522.509 650.64 521.452C651.7 519.421 651.014 516.86 649.074 515.614C648.577 515.295 647.797 515.015 647.249 514.957Z" fill="black"/>
<path id="Vector_2" d="M642.932 530.108C642.668 530.147 641.509 530.512 640.816 530.777C638.742 531.568 637.054 532.636 635.757 533.981C634.241 535.551 633.003 538.098 632.629 540.404C632.445 541.551 632.429 542.801 632.586 544.112C632.652 544.672 632.947 545.963 633.132 546.495C633.852 548.569 635.034 550.308 636.634 551.637C638.538 553.227 640.692 554.121 643.25 554.388C645.834 554.658 648.394 554.061 650.657 552.665C651.323 552.256 651.527 552.096 651.651 551.905C651.698 551.83 651.792 551.697 651.858 551.611C652.038 551.376 652.047 551.24 651.935 550.379C651.811 549.452 651.64 548.342 651.601 548.231C651.583 548.184 651.52 548.103 651.458 548.048C651.395 547.997 651.34 547.938 651.335 547.92C651.327 547.899 651.299 547.892 651.257 547.902C651.219 547.913 651.122 547.936 651.036 547.952C650.916 547.976 650.844 548.018 650.732 548.134C650.078 548.793 649.552 549.22 648.881 549.638C647.275 550.635 645.433 551.086 643.562 550.939C643.209 550.911 641.842 550.587 641.458 550.44C638.358 549.249 636.137 546.294 635.886 543.011C635.741 541.146 636.171 539.414 637.189 537.768C637.922 536.58 638.858 535.653 640.041 534.938C640.701 534.537 641.289 534.277 642.101 534.024C642.592 533.87 642.683 533.829 642.871 533.686C643.135 533.481 643.158 533.427 643.261 532.729C643.398 531.795 643.509 530.584 643.466 530.449C643.428 530.318 643.236 530.137 643.111 530.111C643.068 530.1 642.986 530.101 642.932 530.108Z" fill="black"/>
<rect id="ID25" x="537.442" y="463.601" width="71.8746" height="134.388" rx="0.5" transform="rotate(13.2672 537.442 463.601)" fill="#C4C4C4" stroke="black"/>
<rect id="ID24" x="454.442" y="463.601" width="71.8746" height="134.388" rx="0.5" transform="rotate(13.2672 454.442 463.601)" fill="#C4C4C4" stroke="black"/>
<rect id="ID23" x="371.442" y="463.601" width="71.8746" height="134.388" rx="0.5" transform="rotate(13.2672 371.442 463.601)" fill="#C4C4C4" stroke="black"/>
<rect id="ID22" x="288.442" y="463.601" width="71.8746" height="134.388" rx="0.5" transform="rotate(13.2672 288.442 463.601)" fill="#C4C4C4" stroke="black"/>
<rect id="ID21" x="205.442" y="463.601" width="71.8746" height="134.388" rx="0.5" transform="rotate(13.2672 205.442 463.601)" fill="#C4C4C4" stroke="black"/>
<rect id="ID20" x="122.442" y="463.601" width="71.8746" height="134.388" rx="0.5" transform="rotate(13.2672 122.442 463.601)" fill="#C4C4C4" stroke="black"/>
<rect id="ID19" x="736.442" y="322.601" width="84.4587" height="134.388" rx="0.5" transform="rotate(13.2672 736.442 322.601)" fill="#C4C4C4" stroke="black"/>
<rect id="ID18" x="653.442" y="323.601" width="71.8746" height="134.388" rx="0.5" transform="rotate(13.2672 653.442 323.601)" fill="#C4C4C4" stroke="black"/>
<rect id="ID17" x="570.442" y="323.601" width="71.8746" height="134.388" rx="0.5" transform="rotate(13.2672 570.442 323.601)" fill="#C4C4C4" stroke="black"/>
<rect id="ID16" x="487.442" y="323.601" width="71.8746" height="134.388" rx="0.5" transform="rotate(13.2672 487.442 323.601)" fill="#C4C4C4" stroke="black"/>
<rect id="ID15" x="404.442" y="323.601" width="71.8746" height="134.388" rx="0.5" transform="rotate(13.2672 404.442 323.601)" fill="#C4C4C4" stroke="black"/>
<rect id="ID14" x="321.442" y="323.601" width="71.8746" height="134.388" rx="0.5" transform="rotate(13.2672 321.442 323.601)" fill="#C4C4C4" stroke="black"/>
<rect id="ID13" x="238.442" y="323.601" width="71.8746" height="134.388" rx="0.5" transform="rotate(13.2672 238.442 323.601)" fill="#C4C4C4" stroke="black"/>
<rect id="ID12" x="155.442" y="323.601" width="71.8746" height="134.388" rx="0.5" transform="rotate(13.2672 155.442 323.601)" fill="#C4C4C4" stroke="black"/>
<rect id="ID11" x="830.6" y="16.8087" width="71.8746" height="134.388" rx="0.5" transform="rotate(-13.0331 830.6 16.8087)" fill="#C4C4C4" stroke="black"/>
<rect id="ID10" x="747.6" y="16.8087" width="71.8746" height="134.388" rx="0.5" transform="rotate(-13.0331 747.6 16.8087)" fill="#C4C4C4" stroke="black"/>
<rect id="ID9" x="664.6" y="16.8087" width="71.8746" height="134.388" rx="0.5" transform="rotate(-13.0331 664.6 16.8087)" fill="#C4C4C4" stroke="black"/>
<rect id="ID8" x="581.6" y="16.8087" width="71.8746" height="134.388" rx="0.5" transform="rotate(-13.0331 581.6 16.8087)" fill="#C4C4C4" stroke="black"/>
<rect id="ID7" x="498.6" y="16.8087" width="71.8746" height="134.388" rx="0.5" transform="rotate(-13.0331 498.6 16.8087)" fill="#C4C4C4" stroke="black"/>
<rect id="ID6" x="415.6" y="16.8087" width="71.8746" height="134.388" rx="0.5" transform="rotate(-13.0331 415.6 16.8087)" fill="#C4C4C4" stroke="black"/>
<rect id="ID5" x="332.6" y="16.8087" width="71.8746" height="134.388" rx="0.5" transform="rotate(-13.0331 332.6 16.8087)" fill="#C4C4C4" stroke="black"/>
<rect id="ID4" x="249.6" y="16.8087" width="71.8746" height="134.388" rx="0.5" transform="rotate(-13.0331 249.6 16.8087)" fill="#C4C4C4" stroke="black"/>
<rect id="ID3" x="166.6" y="16.8087" width="71.8746" height="134.388" rx="0.5" transform="rotate(-13.0331 166.6 16.8087)" fill="#C4C4C4" stroke="black"/>
<rect id="ID2" x="83.5999" y="16.8087" width="71.8746" height="134.388" rx="0.5" transform="rotate(-13.0331 83.5999 16.8087)" fill="#C4C4C4" stroke="black"/>
<rect id="ID1" x="0.599877" y="16.8087" width="71.8746" height="134.388" rx="0.5" transform="rotate(-13.0331 0.599877 16.8087)" fill="#C4C4C4" stroke="black"/>
<path id="Vector_3" d="M761.714 376.344C759.776 376.168 758.004 377.208 757.19 379C757.009 379.401 756.834 380.164 756.818 380.601C756.762 382.424 757.758 384.075 759.371 384.834C759.767 385.017 759.767 385.017 759.7 385.038C759.673 385.045 759.596 385.051 759.535 385.051C759.246 385.046 759.09 385.146 759.041 385.366C759.028 385.425 758.88 386.915 758.715 388.673C758.546 390.431 758.373 392.165 758.329 392.526C758.23 393.353 758.226 393.404 758.086 395.103C758.023 395.875 757.864 397.648 757.731 399.042C757.6 400.437 757.501 401.618 757.515 401.674C757.56 401.865 757.631 401.9 758.468 402.122C758.892 402.236 760.686 402.666 762.457 403.079C765.673 403.825 765.678 403.83 765.714 403.904C765.734 403.947 765.796 404.238 765.854 404.55C766.036 405.537 766.663 409.421 766.832 410.583C766.938 411.307 767.481 414.472 767.563 414.848C767.593 414.977 767.63 415.047 767.7 415.099C767.83 415.2 767.83 415.2 768.234 415.158C768.425 415.135 768.777 415.104 769.016 415.085C769.579 415.042 772.213 414.604 772.777 414.46C773.509 414.27 773.525 414.244 773.375 413.405C773.319 413.084 773.202 412.469 773.119 412.037C772.952 411.201 772.919 411.118 772.711 411.072C772.664 411.061 772.192 411.134 771.665 411.231C770.724 411.407 770.267 411.483 770.221 411.473C770.19 411.466 770.238 411.805 769.526 406.748C768.944 402.605 768.762 401.381 768.71 401.178C768.697 401.12 768.653 401.037 768.613 400.999C768.547 400.928 768.305 400.872 764.825 400.083C761.578 399.35 761.108 399.235 761.08 399.186C761.06 399.156 761.058 399.007 761.069 398.855C761.083 398.704 761.127 398.151 761.171 397.629C761.216 397.106 761.275 396.56 761.302 396.421C761.35 396.176 761.361 396.158 761.476 396.065C761.543 396.011 761.665 395.946 761.752 395.923V395.923C761.852 395.893 761.959 395.89 762.061 395.913L765.784 396.761C770.035 397.727 769.794 397.684 769.992 397.527C770.08 397.451 770.083 397.442 770.193 396.855C770.34 396.089 770.532 394.681 770.507 394.574C770.494 394.528 770.453 394.45 770.414 394.405V394.405C770.367 394.35 770.304 394.311 770.233 394.295L765.971 393.334C763.567 392.791 761.596 392.337 761.586 392.322C761.56 392.28 761.59 392.04 762.038 388.598C762.329 386.361 762.422 385.455 762.38 385.278C762.359 385.197 762.349 385.126 762.356 385.121C762.364 385.116 762.481 385.073 762.615 385.027C763.768 384.632 764.663 383.854 765.199 382.789C766.23 380.743 765.506 378.192 763.548 376.975C763.047 376.663 762.263 376.394 761.714 376.344Z" fill="black"/>
<path id="Vector_4" d="M757.619 391.557C757.355 391.6 756.202 391.982 755.513 392.257C753.451 393.078 751.779 394.171 750.502 395.535C749.009 397.127 747.808 399.691 747.468 402.003C747.301 403.153 747.303 404.403 747.479 405.711C747.554 406.27 747.868 407.556 748.06 408.085C748.811 410.149 750.018 411.87 751.637 413.176C753.565 414.738 755.732 415.6 758.293 415.83C760.88 416.062 763.431 415.428 765.674 413.998C766.333 413.579 766.535 413.417 766.657 413.224C766.703 413.148 766.794 413.014 766.859 412.927C767.036 412.689 767.043 412.553 766.918 411.693C766.781 410.769 766.593 409.662 766.553 409.551C766.534 409.504 766.47 409.424 766.407 409.371C766.343 409.32 766.288 409.262 766.282 409.244C766.274 409.223 766.246 409.216 766.204 409.227C766.166 409.238 766.069 409.263 765.984 409.28C765.864 409.306 765.793 409.349 765.682 409.466C765.039 410.136 764.519 410.569 763.854 410.997C762.263 412.019 760.427 412.496 758.554 412.376C758.201 412.354 756.829 412.049 756.443 411.908C753.326 410.763 751.062 407.841 750.763 404.562C750.59 402.699 750.995 400.961 751.989 399.3C752.705 398.101 753.627 397.161 754.799 396.429C755.454 396.018 756.038 395.75 756.845 395.485C757.334 395.324 757.425 395.282 757.61 395.135C757.872 394.927 757.893 394.873 757.987 394.173C758.11 393.237 758.203 392.025 758.158 391.89C758.118 391.76 757.923 391.582 757.798 391.557C757.755 391.547 757.673 391.549 757.619 391.557Z" fill="black"/>
</svg>
