<?xml version="1.0" standalone="no"?>
<!DOCTYPE svg PUBLIC "-//W3C//DTD SVG 20010904//EN"
 "http://www.w3.org/TR/2001/REC-SVG-20010904/DTD/svg10.dtd">
<svg version="1.0" xmlns="http://www.w3.org/2000/svg"
 width="512.000000pt" height="512.000000pt" viewBox="0 0 512.000000 512.000000"
 preserveAspectRatio="xMidYMid meet">
<metadata>
Created by potrace 1.14, written by Peter Selinger 2001-2017
</metadata>
<g transform="translate(0.000000,512.000000) scale(0.100000,-0.100000)"
fill="#000000" stroke="none">
<path d="M3373 5106 c-83 -27 -132 -63 -203 -153 -5 -6 -19 -39 -30 -73 -20
-60 -20 -74 -18 -928 l3 -867 26 -56 c37 -79 90 -133 167 -171 l66 -33 293 -3
293 -3 0 -1260 0 -1259 -140 0 c-149 0 -179 -7 -219 -49 -47 -52 -54 -113 -18
-176 40 -71 32 -70 507 -73 234 -2 440 0 458 3 49 9 99 65 107 120 9 54 -6 97
-47 136 -36 34 -63 39 -219 39 l-129 0 0 1260 0 1260 273 1 c149 0 283 3 297
5 101 19 219 118 255 215 19 52 20 79 20 934 l0 880 -26 56 c-37 79 -90 133
-167 171 l-67 33 -720 2 c-577 2 -728 -1 -762 -11z"/>
<path d="M1024 3085 c-159 -35 -308 -156 -376 -305 -9 -19 -55 -165 -102 -325
-115 -384 -110 -371 -149 -379 -118 -23 -276 -153 -335 -276 -60 -124 -61
-130 -59 -640 2 -431 3 -467 20 -492 35 -51 64 -62 174 -66 l101 -4 4 -167 c3
-165 3 -167 36 -233 63 -128 169 -192 317 -193 71 0 88 4 147 33 77 38 130 92
167 171 24 52 26 67 29 223 l4 168 748 0 748 0 4 -168 c3 -156 5 -171 29 -223
37 -79 90 -133 167 -171 59 -29 76 -33 152 -33 76 0 93 4 152 33 77 38 130 92
166 171 25 52 27 68 30 222 l4 167 101 4 c117 4 146 17 178 80 20 38 20 55 17
516 l-4 477 -26 63 c-70 165 -185 277 -343 333 -44 15 -65 28 -65 39 0 9 -3
20 -7 24 -4 3 -8 12 -9 19 -2 7 -12 44 -24 82 -11 39 -22 75 -24 80 -1 6 -8
30 -15 55 -16 57 -41 140 -48 160 -4 8 -7 22 -9 30 -11 52 -76 232 -98 270
-61 108 -179 203 -301 242 -16 5 -39 12 -50 16 -11 3 -328 7 -705 9 -541 1
-698 -1 -746 -12z"/>
</g>
</svg>
